HIERARCHY
ROOT Hips
{
	OFFSET 0.000000 0.000000 0.000000
	CHANNELS 6 Xposition Yposition Zposition Xrotation Yrotation Zrotation
	JOINT LeftUpLeg_virtual
	{
		OFFSET 0.000000 0.000000 0.000000
		CHANNELS 3 Xrotation Yrotation Zrotation
		JOINT LeftUpLeg
		{
			OFFSET 11.394100 -6.187798 -0.413800
			CHANNELS 3 Xrotation Yrotation Zrotation
			JOINT LeftLeg
			{
				OFFSET 0.430247 -32.302673 3.732800
				CHANNELS 3 Xrotation Yrotation Zrotation
				JOINT LeftFoot
				{
					OFFSET -0.430247 -48.264931 -6.423300
					CHANNELS 3 Xrotation Yrotation Zrotation
					JOINT LeftToeBase
					{
						OFFSET 4.230900 -16.068199 23.438400
						CHANNELS 3 Xrotation Yrotation Zrotation
						JOINT LeftToe_End
						{
							OFFSET 4.510700 0.695400 19.974600
							CHANNELS 3 Xrotation Yrotation Zrotation
							End Site
							{
								OFFSET 0 0 0
							}
						}
					}
				}
			}
		}
	}
	JOINT RightUpLeg_virtual
	{
		OFFSET 0.000000 0.000000 0.000000
		CHANNELS 3 Xrotation Yrotation Zrotation
		JOINT RightUpLeg
		{
			OFFSET -11.333700 -6.187798 -0.413800
			CHANNELS 3 Xrotation Yrotation Zrotation
			JOINT RightLeg
			{
				OFFSET -0.430392 -32.302628 3.733000
				CHANNELS 3 Xrotation Yrotation Zrotation
				JOINT RightFoot
				{
					OFFSET 0.430392 -48.264973 -6.423500
					CHANNELS 3 Xrotation Yrotation Zrotation
					JOINT RightToeBase
					{
						OFFSET -4.230900 -16.068199 23.438400
						CHANNELS 3 Xrotation Yrotation Zrotation
						JOINT RightToe_End
						{
							OFFSET -4.510700 0.695400 19.974600
							CHANNELS 3 Xrotation Yrotation Zrotation
							End Site
							{
								OFFSET 0 0 0
							}
						}
					}
				}
			}
		}
	}
	JOINT Spine_virtual
	{
		OFFSET 0.000000 0.000000 0.000000
		CHANNELS 3 Xrotation Yrotation Zrotation
		JOINT Spine
		{
			OFFSET -0.002400 12.777504 0.315300
			CHANNELS 3 Xrotation Yrotation Zrotation
			JOINT Spine1
			{
				OFFSET -0.002067 5.816869 0.032633
				CHANNELS 3 Xrotation Yrotation Zrotation
				JOINT Spine1_split
				{
					OFFSET -0.002067 5.816869 0.032633
					CHANNELS 3 Xrotation Yrotation Zrotation
					JOINT Spine2
					{
						OFFSET -0.002067 5.816869 0.032633
						CHANNELS 3 Xrotation Yrotation Zrotation
						JOINT Neck_virtual
						{
							OFFSET 0.000000 0.000000 0.000000
							CHANNELS 3 Xrotation Yrotation Zrotation
							JOINT Neck
							{
								OFFSET -0.003700 21.199493 -0.826900
								CHANNELS 3 Xrotation Yrotation Zrotation
								JOINT Head
								{
									OFFSET 0.000000 20.442200 4.834800
									CHANNELS 3 Xrotation Yrotation Zrotation
									JOINT HeadTop_End
									{
										OFFSET 0.000000 34.668396 4.968400
										CHANNELS 3 Xrotation Yrotation Zrotation
										End Site
										{
											OFFSET 0 0 0
										}
									}
								}
							}
						}
						JOINT LeftShoulder_virtual
						{
							OFFSET 0.000000 0.000000 0.000000
							CHANNELS 3 Xrotation Yrotation Zrotation
							JOINT LeftShoulder
							{
								OFFSET 3.288150 8.794197 -1.372250
								CHANNELS 3 Xrotation Yrotation Zrotation
								JOINT LeftShoulder_split
								{
									OFFSET 3.288150 8.794197 -1.372250
									CHANNELS 3 Xrotation Yrotation Zrotation
									JOINT LeftArm
									{
										OFFSET 11.953299 -2.279007 -0.146200
										CHANNELS 3 Xrotation Yrotation Zrotation
										JOINT LeftForeArm
										{
											OFFSET 18.448900 0.000000 0.000000
											CHANNELS 3 Xrotation Yrotation Zrotation
											JOINT LeftHand
											{
												OFFSET 29.527798 0.000000 0.000000
												CHANNELS 3 Xrotation Yrotation Zrotation
												End Site
												{
													OFFSET 0 0 0
												}
											}
										}
									}
								}
							}
						}
						JOINT RightShoulder_virtual
						{
							OFFSET 0.000000 0.000000 0.000000
							CHANNELS 3 Xrotation Yrotation Zrotation
							JOINT RightShoulder
							{
								OFFSET -3.249400 8.794197 -1.372250
								CHANNELS 3 Xrotation Yrotation Zrotation
								JOINT RightShoulder_split
								{
									OFFSET -3.249400 8.794197 -1.372250
									CHANNELS 3 Xrotation Yrotation Zrotation
									JOINT RightArm
									{
										OFFSET -11.953299 -2.279007 -0.146200
										CHANNELS 3 Xrotation Yrotation Zrotation
										JOINT RightForeArm
										{
											OFFSET -18.448900 0.000000 0.000000
											CHANNELS 3 Xrotation Yrotation Zrotation
											JOINT RightHand
											{
												OFFSET -29.527802 0.000000 0.000000
												CHANNELS 3 Xrotation Yrotation Zrotation
												End Site
												{
													OFFSET 0 0 0
												}
											}
										}
									}
								}
							}
						}
					}
				}
			}
		}
	}
}
MOTION
Frames: 8
Frame Time: 0.03333333
9.752029 15.175552 202.339844 0.000000 0.000000 0.000000 -95.891123 -0.227147 -0.077585 -46.835300 -50.493348 34.210191 98.808208 -23.516015 -0.163886 11.802366 -4.702980 -19.409012 -6.003288 0.489704 -3.359611 0.000000 0.000000 0.000000 -100.018490 3.887524 2.739970 -57.883592 17.742869 -20.598618 93.347772 9.567416 -3.103832 15.897631 2.399677 18.234529 10.364674 1.123654 3.260755 0.000000 0.000000 0.000000 -97.552238 2.944925 0.764194 6.286630 -0.844736 3.178862 2.057893 -0.330958 0.167327 0.571480 -0.951755 -0.100729 0.000000 0.000000 0.000000 0.945313 -0.650974 0.848533 10.257446 -1.561122 1.227315 20.542439 0.353863 1.071953 0.000000 0.000000 0.000000 -0.085618 -0.256847 0.241404 -0.053551 -15.927441 -5.375845 -3.832598 5.008121 -2.234464 67.112080 -22.229185 -38.922762 -0.409658 -38.539257 -0.717505 0.000000 0.000000 0.000000 0.094003 -1.038827 0.225951 -2.141960 3.938179 16.783045 9.133600 6.491848 -3.786194 71.226039 26.338463 23.388395 -0.072635 23.298923 -0.163880 0.000000 0.000000 0.000000 
10.011812 15.224014 202.372345 0.000000 0.000000 0.000000 -95.825027 -0.076058 0.019128 -47.818547 -51.383879 32.655155 98.924375 -23.045282 -0.010690 12.041235 -4.557416 -19.266937 -6.259398 0.446293 -3.296150 0.000000 0.000000 0.000000 -99.902233 3.763611 2.541687 -57.796555 15.946962 -21.100937 92.691240 9.298811 -3.394833 14.698791 2.609046 18.560348 10.008703 1.300318 2.754483 0.000000 0.000000 0.000000 -97.400970 2.821193 0.520692 6.634914 -0.886278 2.905002 2.227940 -0.321119 0.174239 0.541406 -0.811971 -0.070521 0.000000 0.000000 0.000000 1.118602 -0.637057 0.805280 10.900761 -2.159160 1.226336 22.180139 -0.607202 1.128133 0.000000 0.000000 0.000000 0.013968 -0.227631 0.292546 0.094669 -16.161133 -5.730819 -3.225097 5.403413 -2.230574 66.465889 -21.312557 -39.280032 -0.800337 -39.566261 -0.991574 0.000000 0.000000 0.000000 0.208102 -1.036386 0.179775 -2.416670 3.568238 17.317207 9.670463 6.298220 -3.838719 69.498821 25.674527 23.489907 -0.233110 23.521092 0.113904 0.000000 0.000000 0.000000 
10.258955 15.323685 202.474503 0.000000 0.000000 0.000000 -95.636739 -0.021453 -0.006540 -48.766308 -52.052657 31.393858 99.116399 -22.448235 0.075451 12.304500 -4.476418 -19.013640 -6.889404 0.362645 -3.096609 0.000000 0.000000 0.000000 -99.659837 3.582294 2.301320 -57.310369 13.836550 -21.786531 91.896821 9.040590 -3.564950 13.124008 2.877404 18.785199 9.838333 1.406244 2.119492 0.000000 0.000000 0.000000 -97.294815 2.629995 0.240302 7.128930 -0.937744 2.584604 2.494119 -0.329182 0.181925 0.708197 -0.802936 -0.158048 0.000000 0.000000 0.000000 1.325686 -0.659199 0.762056 11.628644 -2.672596 1.100777 23.619564 -1.477137 1.069676 0.000000 0.000000 0.000000 0.187282 -0.238059 0.319775 0.288774 -15.996334 -6.064715 -2.481936 5.507339 -2.161780 65.696134 -20.263657 -39.175103 -1.570241 -40.106263 -1.458756 0.000000 0.000000 0.000000 0.413162 -1.064595 0.109523 -2.650935 3.296126 17.634203 10.164099 6.190621 -3.931052 67.228241 25.001882 24.137212 -0.455874 23.936719 0.370330 0.000000 0.000000 0.000000 
10.445229 15.473595 202.592407 0.000000 0.000000 0.000000 -95.363955 -0.097237 -0.208145 -49.982095 -52.502124 30.258404 99.588024 -21.891489 0.179560 12.718650 -4.641294 -18.692452 -7.722807 0.234151 -2.837616 0.000000 0.000000 0.000000 -99.361439 3.408135 2.065198 -56.389051 11.484962 -22.565246 90.797851 8.771774 -3.614219 11.325780 3.132271 18.988218 9.813127 1.418131 1.419258 0.000000 0.000000 0.000000 -97.224949 2.405149 -0.026629 7.707681 -1.020239 2.262321 2.852469 -0.348903 0.205523 0.882262 -0.887319 -0.231049 0.000000 0.000000 0.000000 1.586564 -0.716321 0.741083 12.462191 -3.090143 0.883369 24.882908 -2.209084 0.961497 0.000000 0.000000 0.000000 0.450038 -0.281983 0.339963 0.527525 -15.366305 -6.506731 -1.630478 5.319803 -1.960962 64.689111 -19.180081 -38.483499 -2.491485 -40.266417 -1.949486 0.000000 0.000000 0.000000 0.729007 -1.117757 0.047900 -2.865177 3.266530 17.913259 10.464895 6.235442 -4.048368 64.731308 24.377126 25.185764 -0.659090 24.329496 0.555799 0.000000 0.000000 0.000000 
10.580806 15.721863 202.713318 0.000000 0.000000 0.000000 -95.085645 -0.255134 -0.540785 -51.686394 -52.718405 28.988945 100.381473 -21.441634 0.297124 13.238450 -4.978082 -18.240724 -8.427036 0.090241 -2.674628 0.000000 0.000000 0.000000 -99.069783 3.278300 1.839076 -55.056902 8.995583 -23.331653 89.165087 8.539525 -3.627427 9.509724 3.346032 19.264673 9.923714 1.350766 0.719421 0.000000 0.000000 0.000000 -97.121615 2.165551 -0.313284 8.279977 -1.122939 2.009730 3.259176 -0.369312 0.243727 0.934582 -1.067442 -0.394936 0.000000 0.000000 0.000000 1.914123 -0.799406 0.732355 13.366965 -3.376344 0.620093 25.981259 -2.831986 0.884322 0.000000 0.000000 0.000000 0.788615 -0.340436 0.358428 0.810567 -14.153933 -7.177363 -0.664423 4.802188 -1.667626 63.530342 -18.191061 -37.168120 -3.327415 -40.410637 -2.337723 0.000000 0.000000 0.000000 1.147416 -1.195320 0.006292 -3.081881 3.565030 18.282564 10.471501 6.378941 -4.030561 62.281975 23.814291 26.303771 -0.796708 24.473823 0.659322 0.000000 0.000000 0.000000 
10.718495 16.039703 202.808807 0.000000 0.000000 0.000000 -94.782808 -0.409427 -0.895308 -53.878595 -52.738674 27.415158 101.410230 -21.031358 0.396733 13.700875 -5.323307 -17.685257 -8.688471 -0.029316 -2.749370 0.000000 0.000000 0.000000 -98.682177 3.233418 1.625550 -53.398778 6.516713 -24.029256 86.919321 8.316732 -3.601680 7.844417 3.481332 19.649863 10.125321 1.221388 0.132094 0.000000 0.000000 0.000000 -96.921006 1.944962 -0.620642 8.797057 -1.222181 1.874723 3.690791 -0.377123 0.280051 0.817220 -1.228875 -0.454294 0.000000 0.000000 0.000000 2.307869 -0.891799 0.730808 14.258856 -3.540075 0.374917 27.001276 -3.322480 0.861788 0.000000 0.000000 0.000000 1.190364 -0.398814 0.361348 1.152400 -12.357983 -8.143038 0.308871 4.040120 -1.293604 62.262078 -17.440733 -35.278665 -3.967987 -40.653450 -2.591992 0.000000 0.000000 0.000000 1.650002 -1.277000 -0.024981 -3.311237 4.150618 18.770661 10.197902 6.556632 -3.963902 60.070913 23.258973 27.141182 -0.866931 24.361034 0.692225 0.000000 0.000000 0.000000 
10.905849 16.394722 202.807617 0.000000 0.000000 0.000000 -94.502934 -0.568410 -1.275538 -56.318895 -52.562513 25.541690 102.493088 -20.570930 0.413300 13.989563 -5.542116 -17.019962 -8.766996 -0.102571 -2.956317 0.000000 0.000000 0.000000 -98.274196 3.302732 1.457255 -51.484989 4.163670 -24.584146 84.196643 8.089262 -3.557091 6.465149 3.522102 20.084421 10.302719 1.034369 -0.293289 0.000000 0.000000 0.000000 -96.566417 1.775300 -0.904252 9.255181 -1.277930 1.867385 4.146861 -0.358937 0.291856 0.599971 -1.354292 -0.500194 0.000000 0.000000 0.000000 2.748525 -0.979848 0.715087 15.036579 -3.607250 0.202310 28.006253 -3.685334 0.909756 0.000000 0.000000 0.000000 1.644316 -0.461079 0.327235 1.610699 -10.031834 -9.370528 1.192491 3.247616 -0.962076 60.943886 -16.983074 -32.848145 -4.406898 -40.852967 -2.778902 0.000000 0.000000 0.000000 2.199731 -1.343338 -0.055652 -3.535283 4.945829 19.362362 9.681498 6.785506 -3.908770 58.009794 22.569342 27.618645 -0.901815 24.245645 0.719572 0.000000 0.000000 0.000000 
11.148460 16.750546 202.738754 0.000000 0.000000 0.000000 -94.189306 -0.723192 -1.637104 -58.861402 -52.150062 23.477476 103.508327 -20.002624 0.337230 14.016368 -5.585077 -16.214956 -8.855387 -0.131747 -3.221768 0.000000 0.000000 0.000000 -97.805959 3.425435 1.307333 -49.503490 2.032574 -24.960284 81.196585 7.839812 -3.493256 5.490595 3.478986 20.553458 10.310568 0.819323 -0.568896 0.000000 0.000000 0.000000 -96.004476 1.668870 -1.177675 9.670921 -1.261716 1.956673 4.643697 -0.322292 0.268093 0.484387 -1.414910 -0.535016 0.000000 0.000000 0.000000 3.211684 -1.062293 0.666297 15.607628 -3.589307 0.117363 29.015347 -3.939839 1.014519 0.000000 0.000000 0.000000 2.158595 -0.537008 0.237546 2.223026 -7.186414 -10.734159 1.931044 2.300689 -0.575094 59.749518 -16.843404 -29.863766 -4.699101 -40.880222 -2.960695 0.000000 0.000000 0.000000 2.783724 -1.398184 -0.109458 -3.739500 5.776913 19.956004 9.166319 7.025064 -3.809070 56.020416 21.603673 27.828487 -0.914127 24.403048 0.738061 0.000000 0.000000 0.000000 
